<svg xmlns="http://www.w3.org/2000/svg" xmlns:xlink="http://www.w3.org/1999/xlink" fill="none" version="1.122" width="36" height="36" viewBox="0 0 36 36"><defs><linearGradient x1="0.5" y1="0" x2="0.5" y2="1" id="master_svg0_1734_42175"><stop offset="0%" stop-color="#2CB3E6" stop-opacity="1"/><stop offset="100%" stop-color="#279FC3" stop-opacity="1"/></linearGradient></defs><g><g><rect x="0" y="0" width="36" height="36" rx="0" fill="#FFFFFF" fill-opacity="1"/></g><g><g><path d="M27.405077821731567,33.05696375L8.441107821731567,33.05696375C7.6142768217315675,33.09637375,6.923077821731567,32.41412375,6.923077821731567,31.55859375C6.923077821731567,30.70305775,7.614278821731567,30.02081215,8.441107821731567,30.06022164L27.405077821731567,30.06022164C28.23187782173157,30.02081215,28.923077821731567,30.70305775,28.923077821731567,31.55859375C28.923077821731567,32.41412375,28.23187782173157,33.09637375,27.405077821731567,33.05696375Z" fill="#2984A4" fill-opacity="1" style="mix-blend-mode:passthrough"/></g><g><path d="M7.680605703125,4.05859375L28.165595703125,4.05859375Q31.923095703125,4.05859375,31.923095703125,8.028213749999999L31.923095703125,23.08899375Q31.923095703125,27.05859375,28.165595703125,27.05859375L7.680605703125,27.05859375Q3.923095703125,27.05859375,3.923095703125,23.08899375L3.923095703125,8.028213749999999Q3.923095703125,4.05859252186,7.680605703125,4.05859375Z" fill="url(#master_svg0_1734_42175)" fill-opacity="1" style="mix-blend-mode:passthrough"/></g><g><path d="M12.217365703125001,17.02868375Q14.591655703125,14.69279375,17.943115703125002,14.69279375Q21.294595703124997,14.69279375,23.630495703125,17.02868375L22.021695703124998,18.67581375Q20.336195703125,16.99028375,17.923505703125002,16.99028375Q15.510815703125001,16.99028375,13.825275703125001,18.67581375L12.217365703125001,17.02868375ZM15.472415703125,20.322993750000002Q16.468375703124998,19.32698375,17.923505703125002,19.32698375Q19.378595703125,19.32698375,20.374595703125,20.322993750000002L17.923505703125002,22.773993750000002L15.472415703125,20.322993750000002ZM8.923095703125,13.77363375Q12.676535703125,10.05859375,17.942295703124998,10.05859375Q23.208095703125,10.05859375,26.923095703125,13.77363375L25.275995703125,15.420763749999999Q22.212095703125,12.39530375,17.922685703124998,12.39530375Q13.633275703125001,12.39530375,10.569415703125,15.420763749999999L8.923095703125,13.77363375Z" fill="#FFFFFF" fill-opacity="1" style="mix-blend-mode:passthrough"/></g></g></g></svg>
